<svg width="24" height="28" viewBox="0 0 24 28" fill="none" xmlns="http://www.w3.org/2000/svg">
<path d="M8.57143 21.25H15.4286C16.3714 21.25 17.1429 20.4906 17.1429 19.5625V11.1249H19.8686C21.3943 11.1249 22.1657 9.30239 21.0857 8.23926L13.2171 0.493596C12.5486 -0.164532 11.4686 -0.164532 10.8 0.493596L2.93143 8.23926C1.85143 9.30239 2.60571 11.1249 4.13143 11.1249H6.85714V19.5625C6.85714 20.4906 7.62857 21.25 8.57143 21.25ZM1.71429 24.625H22.2857C23.2286 24.625 24 25.3844 24 26.3125C24 27.2406 23.2286 28 22.2857 28H1.71429C0.771429 28 0 27.2406 0 26.3125C0 25.3844 0.771429 24.625 1.71429 24.625Z" fill="#4318FF"/>
</svg>
